<svg width="" height="" viewBox="0 0 178 39" fill="none" xmlns="http://www.w3.org/2000/svg">
<path d="M4.56876 21.125L15.2292 5.61249V21.125H4.56876ZM8.64168 19H13.1042V12.3771L8.64168 19ZM18.2042 21.125C18.6528 19.7083 18.9774 18.2858 19.1781 16.8573C19.3788 15.4288 19.4792 13.9 19.4792 12.2708C19.4792 10.7125 19.3788 9.19547 19.1781 7.71978C18.9774 6.24408 18.6528 4.83332 18.2042 3.48749C19.3139 3.9361 20.5063 4.72117 21.7813 5.8427C23.0563 6.96422 24.2486 8.31596 25.3583 9.8979C26.4681 11.4798 27.4007 13.233 28.1563 15.1573C28.9118 17.0816 29.325 19.0708 29.3958 21.125H18.2042ZM20.8604 19H27.0583C26.657 16.9458 25.9191 14.9625 24.8448 13.05C23.7705 11.1375 22.5958 9.55554 21.3208 8.30415C21.4389 9.01249 21.5156 9.70902 21.5511 10.3937C21.5865 11.0785 21.6042 11.7042 21.6042 12.2708C21.6042 13.3569 21.5274 14.5257 21.374 15.7771C21.2205 17.0285 21.0493 18.1028 20.8604 19V19ZM12.75 29.0583C11.9472 29.0583 11.1799 28.8399 10.4479 28.4031C9.71598 27.9663 9.06668 27.4173 8.50001 26.7562C8.16945 27.0868 7.77397 27.4114 7.31355 27.7302C6.85314 28.0489 6.41043 28.291 5.98543 28.4562C5.3007 28.0312 4.6632 27.3996 4.07293 26.5614C3.48265 25.7233 3.09307 24.8555 2.90418 23.9583H31.0958C30.907 24.8555 30.5174 25.7233 29.9271 26.5614C29.3368 27.3996 28.6993 28.0312 28.0146 28.4562C27.5896 28.291 27.1469 28.0489 26.6865 27.7302C26.2261 27.4114 25.8306 27.0868 25.5 26.7562C24.9333 27.4173 24.284 27.9663 23.5521 28.4031C22.8202 28.8399 22.0528 29.0583 21.25 29.0583C20.4472 29.0583 19.6799 28.8399 18.9479 28.4031C18.216 27.9663 17.5667 27.4173 17 26.7562C16.4333 27.4173 15.784 27.9663 15.0521 28.4031C14.3201 28.8399 13.5528 29.0583 12.75 29.0583ZM2.83334 34.5833V32.4583H4.25001C5.00557 32.4583 5.73161 32.3344 6.42814 32.0864C7.12466 31.8385 7.81529 31.384 8.50001 30.7229C9.18473 31.384 9.88126 31.8385 10.5896 32.0864C11.2979 32.3344 12.0181 32.4583 12.75 32.4583C13.5056 32.4583 14.2316 32.3344 14.9281 32.0864C15.6247 31.8385 16.3153 31.384 17 30.7229C17.6847 31.384 18.3813 31.8385 19.0896 32.0864C19.7979 32.3344 20.5181 32.4583 21.25 32.4583C22.0056 32.4583 22.7316 32.3344 23.4281 32.0864C24.1247 31.8385 24.8153 31.384 25.5 30.7229C26.1847 31.384 26.8754 31.8385 27.5719 32.0864C28.2684 32.3344 28.9945 32.4583 29.75 32.4583H31.1667V34.5833H29.75C29.0653 34.5833 28.3629 34.483 27.6427 34.2823C26.9226 34.0816 26.2083 33.7097 25.5 33.1667C24.7917 33.7097 24.0774 34.0816 23.3573 34.2823C22.6372 34.483 21.9347 34.5833 21.25 34.5833C20.5653 34.5833 19.8629 34.483 19.1427 34.2823C18.4226 34.0816 17.7083 33.7097 17 33.1667C16.2917 33.7097 15.5774 34.0816 14.8573 34.2823C14.1372 34.483 13.4347 34.5833 12.75 34.5833C12.0653 34.5833 11.3629 34.483 10.6427 34.2823C9.92258 34.0816 9.20834 33.7097 8.50001 33.1667C7.79168 33.7097 7.07744 34.0816 6.3573 34.2823C5.63716 34.483 4.93473 34.5833 4.25001 34.5833H2.83334Z" fill="#2A2C57"/>
<path d="M51.4581 8.32C51.9275 8.32 52.3861 8.384 52.8341 8.512C53.2821 8.64 53.6555 8.85333 53.9541 9.152C54.2528 9.42933 54.4021 9.80267 54.4021 10.272C54.4021 10.8053 54.2421 11.232 53.9221 11.552C53.6235 11.8507 53.2715 12 52.8661 12C52.6741 12 52.3861 11.9573 52.0021 11.872C51.6181 11.7653 51.2448 11.712 50.8821 11.712C50.3488 11.712 49.9328 11.8293 49.6341 12.064C49.3568 12.2987 49.1648 12.576 49.0581 12.896C48.9515 13.1947 48.8981 13.4613 48.8981 13.696V30.048C48.8981 30.6027 48.7168 31.072 48.3541 31.456C47.9915 31.8187 47.5328 32 46.9781 32C46.4235 32 45.9648 31.8187 45.6021 31.456C45.2395 31.072 45.0581 30.6027 45.0581 30.048V13.728C45.0581 12.2133 45.5915 10.9333 46.6581 9.888C47.7248 8.84267 49.3248 8.32 51.4581 8.32ZM51.8101 15.2C52.3221 15.2 52.7488 15.3707 53.0901 15.712C53.4315 16.032 53.6021 16.448 53.6021 16.96C53.6021 17.472 53.4315 17.8987 53.0901 18.24C52.7488 18.56 52.3221 18.72 51.8101 18.72H43.3301C42.8181 18.72 42.3915 18.56 42.0501 18.24C41.7088 17.8987 41.5381 17.472 41.5381 16.96C41.5381 16.448 41.7088 16.032 42.0501 15.712C42.3915 15.3707 42.8181 15.2 43.3301 15.2H51.8101ZM58.5469 32C57.9922 32 57.5335 31.8187 57.1709 31.456C56.8082 31.072 56.6269 30.6027 56.6269 30.048V16.832C56.6269 16.2773 56.8082 15.8187 57.1709 15.456C57.5335 15.072 57.9922 14.88 58.5469 14.88C59.1015 14.88 59.5602 15.072 59.9229 15.456C60.2855 15.8187 60.4669 16.2773 60.4669 16.832V19.84L60.2429 17.696C60.4775 17.184 60.7762 16.736 61.1389 16.352C61.5229 15.9467 61.9495 15.616 62.4189 15.36C62.8882 15.0827 63.3895 14.88 63.9229 14.752C64.4562 14.624 64.9895 14.56 65.5229 14.56C66.1629 14.56 66.6962 14.7413 67.1229 15.104C67.5709 15.4667 67.7949 15.8933 67.7949 16.384C67.7949 17.088 67.6135 17.6 67.2509 17.92C66.8882 18.2187 66.4935 18.368 66.0669 18.368C65.6615 18.368 65.2882 18.2933 64.9469 18.144C64.6269 17.9947 64.2535 17.92 63.8269 17.92C63.4429 17.92 63.0482 18.016 62.6429 18.208C62.2589 18.3787 61.8962 18.656 61.5549 19.04C61.2349 19.424 60.9682 19.904 60.7549 20.48C60.5629 21.0347 60.4669 21.696 60.4669 22.464V30.048C60.4669 30.6027 60.2855 31.072 59.9229 31.456C59.5602 31.8187 59.1015 32 58.5469 32ZM79.6539 14.56C81.2325 14.56 82.4272 14.8907 83.2379 15.552C84.0699 16.2133 84.6352 17.0987 84.9339 18.208C85.2539 19.296 85.4139 20.512 85.4139 21.856V30.048C85.4139 30.6027 85.2325 31.072 84.8699 31.456C84.5072 31.8187 84.0485 32 83.4939 32C82.9392 32 82.4805 31.8187 82.1179 31.456C81.7552 31.072 81.5739 30.6027 81.5739 30.048V21.856C81.5739 21.152 81.4779 20.5227 81.2859 19.968C81.1152 19.392 80.7952 18.9333 80.3259 18.592C79.8565 18.2507 79.1845 18.08 78.3099 18.08C77.4565 18.08 76.7312 18.2507 76.1339 18.592C75.5579 18.9333 75.1099 19.392 74.7899 19.968C74.4912 20.5227 74.3419 21.152 74.3419 21.856V30.048C74.3419 30.6027 74.1605 31.072 73.7979 31.456C73.4352 31.8187 72.9765 32 72.4219 32C71.8672 32 71.4085 31.8187 71.0459 31.456C70.6832 31.072 70.5019 30.6027 70.5019 30.048V16.832C70.5019 16.2773 70.6832 15.8187 71.0459 15.456C71.4085 15.072 71.8672 14.88 72.4219 14.88C72.9765 14.88 73.4352 15.072 73.7979 15.456C74.1605 15.8187 74.3419 16.2773 74.3419 16.832V18.208L73.8619 18.112C74.0539 17.7493 74.3312 17.3653 74.6939 16.96C75.0565 16.5333 75.4832 16.1387 75.9739 15.776C76.4645 15.4133 77.0192 15.1253 77.6379 14.912C78.2565 14.6773 78.9285 14.56 79.6539 14.56ZM103.58 8.32C104.135 8.32 104.594 8.50133 104.956 8.864C105.319 9.22667 105.5 9.696 105.5 10.272V30.048C105.5 30.6027 105.319 31.072 104.956 31.456C104.594 31.8187 104.135 32 103.58 32C103.026 32 102.567 31.8187 102.204 31.456C101.842 31.072 101.66 30.6027 101.66 30.048V28.48L102.364 28.768C102.364 29.0453 102.215 29.3867 101.916 29.792C101.618 30.176 101.212 30.56 100.7 30.944C100.188 31.328 99.5804 31.6587 98.8764 31.936C98.1937 32.192 97.447 32.32 96.6364 32.32C95.1644 32.32 93.831 31.9467 92.6364 31.2C91.4417 30.432 90.4924 29.3867 89.7884 28.064C89.1057 26.72 88.7644 25.184 88.7644 23.456C88.7644 21.7067 89.1057 20.1707 89.7884 18.848C90.4924 17.504 91.431 16.4587 92.6044 15.712C93.7777 14.944 95.079 14.56 96.5084 14.56C97.4257 14.56 98.2684 14.6987 99.0364 14.976C99.8044 15.2533 100.466 15.6053 101.02 16.032C101.596 16.4587 102.034 16.896 102.332 17.344C102.652 17.7707 102.812 18.1333 102.812 18.432L101.66 18.848V10.272C101.66 9.71733 101.842 9.25867 102.204 8.896C102.567 8.512 103.026 8.32 103.58 8.32ZM97.1164 28.8C98.055 28.8 98.8764 28.5653 99.5804 28.096C100.284 27.6267 100.828 26.9867 101.212 26.176C101.618 25.3653 101.82 24.4587 101.82 23.456C101.82 22.432 101.618 21.5147 101.212 20.704C100.828 19.8933 100.284 19.2533 99.5804 18.784C98.8764 18.3147 98.055 18.08 97.1164 18.08C96.199 18.08 95.3884 18.3147 94.6844 18.784C93.9804 19.2533 93.4257 19.8933 93.0204 20.704C92.6364 21.5147 92.4444 22.432 92.4444 23.456C92.4444 24.4587 92.6364 25.3653 93.0204 26.176C93.4257 26.9867 93.9804 27.6267 94.6844 28.096C95.3884 28.5653 96.199 28.8 97.1164 28.8ZM108.666 29.344C108.453 29.0453 108.357 28.6613 108.378 28.192C108.399 27.7227 108.677 27.3173 109.21 26.976C109.551 26.7627 109.914 26.6773 110.298 26.72C110.682 26.7413 111.055 26.9333 111.418 27.296C112.037 27.9147 112.687 28.3947 113.37 28.736C114.053 29.0773 114.906 29.248 115.93 29.248C116.25 29.2267 116.602 29.184 116.986 29.12C117.37 29.0347 117.701 28.864 117.978 28.608C118.277 28.3307 118.426 27.9147 118.426 27.36C118.426 26.8907 118.266 26.5173 117.946 26.24C117.626 25.9627 117.199 25.728 116.666 25.536C116.154 25.344 115.578 25.1627 114.938 24.992C114.277 24.8 113.594 24.5867 112.89 24.352C112.207 24.1173 111.578 23.8187 111.002 23.456C110.426 23.072 109.957 22.5707 109.594 21.952C109.231 21.3333 109.05 20.5547 109.05 19.616C109.05 18.5493 109.349 17.6427 109.946 16.896C110.543 16.1493 111.311 15.5733 112.25 15.168C113.21 14.7627 114.213 14.56 115.258 14.56C115.919 14.56 116.613 14.6453 117.338 14.816C118.063 14.9653 118.757 15.2213 119.418 15.584C120.079 15.9253 120.634 16.384 121.082 16.96C121.317 17.28 121.455 17.664 121.498 18.112C121.541 18.56 121.338 18.9653 120.89 19.328C120.57 19.584 120.197 19.7013 119.77 19.68C119.343 19.6373 118.991 19.488 118.714 19.232C118.351 18.7627 117.861 18.3893 117.242 18.112C116.645 17.8347 115.951 17.696 115.162 17.696C114.842 17.696 114.49 17.7387 114.106 17.824C113.743 17.888 113.423 18.048 113.146 18.304C112.869 18.5387 112.73 18.9227 112.73 19.456C112.73 19.9467 112.89 20.3413 113.21 20.64C113.53 20.9173 113.957 21.152 114.49 21.344C115.045 21.5147 115.631 21.6853 116.25 21.856C116.89 22.0267 117.541 22.2293 118.202 22.464C118.863 22.6987 119.471 23.008 120.026 23.392C120.581 23.776 121.029 24.2773 121.37 24.896C121.711 25.4933 121.882 26.2613 121.882 27.2C121.882 28.288 121.562 29.216 120.922 29.984C120.282 30.752 119.482 31.3387 118.522 31.744C117.562 32.128 116.581 32.32 115.578 32.32C114.319 32.32 113.061 32.1067 111.802 31.68C110.543 31.232 109.498 30.4533 108.666 29.344ZM134.088 14.56C135.624 14.56 136.786 14.8907 137.576 15.552C138.386 16.2133 138.941 17.0987 139.24 18.208C139.538 19.296 139.688 20.512 139.688 21.856V30.048C139.688 30.6027 139.506 31.072 139.144 31.456C138.781 31.8187 138.322 32 137.768 32C137.213 32 136.754 31.8187 136.392 31.456C136.029 31.072 135.848 30.6027 135.848 30.048V21.856C135.848 21.152 135.762 20.5227 135.592 19.968C135.421 19.392 135.112 18.9333 134.664 18.592C134.216 18.2507 133.576 18.08 132.744 18.08C131.933 18.08 131.24 18.2507 130.664 18.592C130.088 18.9333 129.65 19.392 129.352 19.968C129.074 20.5227 128.936 21.152 128.936 21.856V30.048C128.936 30.6027 128.754 31.072 128.392 31.456C128.029 31.8187 127.57 32 127.016 32C126.461 32 126.002 31.8187 125.64 31.456C125.277 31.072 125.096 30.6027 125.096 30.048V10.272C125.096 9.71733 125.277 9.25867 125.64 8.896C126.002 8.512 126.461 8.32 127.016 8.32C127.57 8.32 128.029 8.512 128.392 8.896C128.754 9.25867 128.936 9.71733 128.936 10.272V18.208L128.456 18.112C128.648 17.7493 128.914 17.3653 129.256 16.96C129.597 16.5333 130.013 16.1387 130.504 15.776C130.994 15.4133 131.538 15.1253 132.136 14.912C132.733 14.6773 133.384 14.56 134.088 14.56ZM147.462 30.048C147.462 30.6027 147.28 31.072 146.918 31.456C146.555 31.8187 146.096 32 145.542 32C144.987 32 144.528 31.8187 144.166 31.456C143.803 31.072 143.622 30.6027 143.622 30.048V16.832C143.622 16.2773 143.803 15.8187 144.166 15.456C144.528 15.072 144.987 14.88 145.542 14.88C146.096 14.88 146.555 15.072 146.918 15.456C147.28 15.8187 147.462 16.2773 147.462 16.832V30.048ZM145.51 12.8C144.784 12.8 144.272 12.6827 143.974 12.448C143.675 12.2133 143.526 11.7973 143.526 11.2V10.592C143.526 9.97333 143.686 9.55733 144.006 9.344C144.347 9.10933 144.859 8.992 145.542 8.992C146.288 8.992 146.811 9.10933 147.11 9.344C147.408 9.57867 147.558 9.99467 147.558 10.592V11.2C147.558 11.8187 147.398 12.2453 147.078 12.48C146.758 12.6933 146.235 12.8 145.51 12.8ZM160.272 14.56C161.765 14.56 163.099 14.944 164.272 15.712C165.467 16.4587 166.405 17.4933 167.088 18.816C167.792 20.1387 168.144 21.6747 168.144 23.424C168.144 25.1733 167.792 26.72 167.088 28.064C166.405 29.3867 165.477 30.432 164.304 31.2C163.152 31.9467 161.851 32.32 160.4 32.32C159.547 32.32 158.747 32.1813 158 31.904C157.253 31.6267 156.592 31.2747 156.016 30.848C155.461 30.4213 155.024 29.9947 154.704 29.568C154.405 29.12 154.256 28.7467 154.256 28.448L155.248 28.032V36.448C155.248 37.0027 155.067 37.4613 154.704 37.824C154.341 38.208 153.883 38.4 153.328 38.4C152.773 38.4 152.315 38.2187 151.952 37.856C151.589 37.4933 151.408 37.024 151.408 36.448V16.832C151.408 16.2773 151.589 15.8187 151.952 15.456C152.315 15.072 152.773 14.88 153.328 14.88C153.883 14.88 154.341 15.072 154.704 15.456C155.067 15.8187 155.248 16.2773 155.248 16.832V18.4L154.704 18.112C154.704 17.8347 154.853 17.504 155.152 17.12C155.451 16.7147 155.856 16.32 156.368 15.936C156.88 15.5307 157.467 15.2 158.128 14.944C158.811 14.688 159.525 14.56 160.272 14.56ZM159.792 18.08C158.853 18.08 158.032 18.3147 157.328 18.784C156.624 19.2533 156.069 19.8933 155.664 20.704C155.28 21.4933 155.088 22.4 155.088 23.424C155.088 24.4267 155.28 25.344 155.664 26.176C156.069 26.9867 156.624 27.6267 157.328 28.096C158.032 28.5653 158.853 28.8 159.792 28.8C160.731 28.8 161.541 28.5653 162.224 28.096C162.928 27.6267 163.472 26.9867 163.856 26.176C164.261 25.344 164.464 24.4267 164.464 23.424C164.464 22.4 164.261 21.4933 163.856 20.704C163.472 19.8933 162.928 19.2533 162.224 18.784C161.541 18.3147 160.731 18.08 159.792 18.08Z" fill="#2A2C57"/>
</svg>
