<svg width="" height="" viewBox="0 0 33 33" fill="none" xmlns="http://www.w3.org/2000/svg">
<circle cx="16.5" cy="16.5" r="16.5" fill="white"/>
<path d="M23 17.5C23.8284 17.5 24.5 16.8284 24.5 16C24.5 15.1716 23.8284 14.5 23 14.5V17.5ZM7.93934 14.9393C7.35355 15.5251 7.35355 16.4749 7.93934 17.0607L17.4853 26.6066C18.0711 27.1924 19.0208 27.1924 19.6066 26.6066C20.1924 26.0208 20.1924 25.0711 19.6066 24.4853L11.1213 16L19.6066 7.51472C20.1924 6.92893 20.1924 5.97918 19.6066 5.3934C19.0208 4.80761 18.0711 4.80761 17.4853 5.3934L7.93934 14.9393ZM23 14.5L9 14.5V17.5H23V14.5Z" fill="#6B6D71"/>
</svg>
