<svg width="" height="" viewBox="0 0 109 36" fill="none" xmlns="http://www.w3.org/2000/svg">
<path d="M14.1508 14.048L18.8668 14C18.9148 14.2 18.9468 14.416 18.9628 14.648C18.9868 14.88 18.9988 15.1 18.9988 15.308C18.9988 15.516 18.9868 15.744 18.9628 15.992C18.9468 16.232 18.9148 16.456 18.8668 16.664L14.1028 16.592L10.2628 16.664C10.2148 16.456 10.1788 16.232 10.1548 15.992C10.1308 15.744 10.1188 15.516 10.1188 15.308C10.1188 15.1 10.1308 14.88 10.1548 14.648C10.1788 14.416 10.2148 14.2 10.2628 14L14.1508 14.048ZM12.3268 15.584C12.2788 15.064 12.2148 14.544 12.1348 14.024C12.0548 13.504 12.0148 12.972 12.0148 12.428C12.0148 11.628 12.1868 10.916 12.5308 10.292C12.8828 9.66 13.3748 9.16 14.0068 8.792C14.6388 8.424 15.3708 8.24 16.2028 8.24C16.9548 8.24 17.6508 8.312 18.2908 8.456C18.9308 8.592 19.4588 8.74 19.8748 8.9C19.8908 9.324 19.8188 9.78 19.6588 10.268C19.5068 10.748 19.3108 11.116 19.0708 11.372C18.8308 11.308 18.5428 11.24 18.2068 11.168C17.8788 11.096 17.5508 11.06 17.2228 11.06C16.7108 11.06 16.3108 11.196 16.0228 11.468C15.7428 11.74 15.6028 12.148 15.6028 12.692C15.6028 13.14 15.6508 13.628 15.7468 14.156C15.8508 14.676 15.9308 15.16 15.9868 15.608V26C15.4108 26.096 14.7908 26.144 14.1268 26.144C13.4948 26.144 12.8948 26.096 12.3268 26V15.584ZM28.9887 14.06C28.9887 14.5 28.9087 15.064 28.7487 15.752C28.5887 16.432 28.3567 17.036 28.0527 17.564C27.8447 17.484 27.6367 17.428 27.4287 17.396C27.2287 17.364 27.0247 17.336 26.8167 17.312C26.4967 17.312 26.2087 17.372 25.9527 17.492C25.6967 17.604 25.4647 17.772 25.2567 17.996C25.0487 18.22 24.8527 18.496 24.6687 18.824C24.4847 19.152 24.3087 19.528 24.1407 19.952L23.7207 19.388C23.7607 18.724 23.8447 18.068 23.9727 17.42C24.1007 16.764 24.2967 16.168 24.5607 15.632C24.8247 15.096 25.1847 14.668 25.6407 14.348C26.1047 14.02 26.6887 13.856 27.3927 13.856C27.7607 13.856 28.0567 13.876 28.2807 13.916C28.5127 13.948 28.7487 13.996 28.9887 14.06ZM20.1927 15.764C20.2567 15.428 20.4047 15.068 20.6367 14.684C20.8687 14.292 21.1007 14.008 21.3327 13.832C22.4447 13.912 23.2807 14.324 23.8407 15.068C24.4087 15.804 24.7447 16.772 24.8487 17.972V26C24.5847 26.048 24.2887 26.084 23.9607 26.108C23.6327 26.132 23.3047 26.144 22.9767 26.144C22.6647 26.144 22.3407 26.132 22.0047 26.108C21.6767 26.084 21.3727 26.048 21.0927 26V18.248C21.0927 17.536 20.9887 16.98 20.7807 16.58C20.5807 16.172 20.3847 15.9 20.1927 15.764ZM32.0237 13.856C32.7437 13.856 33.2837 14.104 33.6437 14.6C34.0117 15.088 34.1957 15.748 34.1957 16.58V26C33.9317 26.048 33.6317 26.084 33.2957 26.108C32.9677 26.132 32.6437 26.144 32.3237 26.144C32.0117 26.144 31.6877 26.132 31.3517 26.108C31.0237 26.084 30.7197 26.048 30.4397 26V14.024L30.6077 13.856H32.0237ZM40.7597 23C40.7597 23.464 40.8037 23.904 40.8917 24.32C40.9797 24.728 41.1357 25.084 41.3597 25.388C41.0877 25.612 40.7477 25.804 40.3397 25.964C39.9317 26.116 39.4917 26.192 39.0197 26.192C38.2677 26.192 37.7437 25.992 37.4477 25.592C37.1517 25.192 37.0037 24.616 37.0037 23.864V18.764C37.0037 18.22 36.9317 17.82 36.7877 17.564C36.6517 17.3 36.3837 17.168 35.9837 17.168C35.7357 17.168 35.4477 17.236 35.1197 17.372C34.7997 17.5 34.4757 17.716 34.1477 18.02C33.8277 18.324 33.5437 18.728 33.2957 19.232V15.944C33.8637 15.4 34.4757 14.908 35.1317 14.468C35.7957 14.028 36.5517 13.808 37.3997 13.808C38.1357 13.808 38.7517 13.992 39.2477 14.36C39.7437 14.72 40.1197 15.22 40.3757 15.86C40.6317 16.5 40.7597 17.24 40.7597 18.08V23ZM53.5847 22.532C53.5847 22.916 53.6447 23.264 53.7647 23.576C53.8927 23.888 54.0567 24.12 54.2567 24.272C54.1847 24.6 54.0327 24.956 53.8007 25.34C53.5767 25.724 53.3487 26.008 53.1167 26.192C52.0607 26.176 51.2647 25.82 50.7287 25.124C50.1927 24.428 49.9247 23.58 49.9247 22.58V8.504L50.0927 8.336H51.5567C52.2927 8.336 52.8127 8.504 53.1167 8.84C53.4287 9.176 53.5847 9.76 53.5847 10.592V22.532ZM42.9047 20.156C42.9047 18.78 43.1207 17.62 43.5527 16.676C43.9927 15.724 44.5767 15.004 45.3047 14.516C46.0327 14.028 46.8367 13.784 47.7167 13.784C48.5487 13.784 49.2847 13.956 49.9247 14.3C50.5727 14.636 51.1607 14.968 51.6887 15.296L51.0887 17.96C50.6247 17.584 50.1527 17.26 49.6727 16.988C49.1927 16.708 48.7567 16.568 48.3647 16.568C47.9807 16.568 47.6687 16.716 47.4287 17.012C47.1967 17.3 47.0247 17.716 46.9127 18.26C46.8007 18.796 46.7447 19.436 46.7447 20.18C46.7447 20.916 46.8047 21.52 46.9247 21.992C47.0527 22.456 47.2247 22.8 47.4407 23.024C47.6647 23.24 47.9127 23.348 48.1847 23.348C48.4407 23.348 48.7367 23.272 49.0727 23.12C49.4167 22.96 49.7487 22.664 50.0687 22.232C50.3967 21.792 50.6647 21.152 50.8727 20.312L51.7127 22.436C51.6407 23.084 51.3967 23.708 50.9807 24.308C50.5647 24.908 50.0287 25.4 49.3727 25.784C48.7247 26.168 48.0047 26.36 47.2127 26.36C46.2447 26.36 45.4407 26.096 44.8007 25.568C44.1607 25.04 43.6847 24.308 43.3727 23.372C43.0607 22.436 42.9047 21.364 42.9047 20.156ZM55.5188 25.172C55.5348 24.772 55.6428 24.324 55.8428 23.828C56.0508 23.332 56.2908 22.94 56.5628 22.652C57.0908 22.924 57.6348 23.16 58.1948 23.36C58.7628 23.552 59.3268 23.648 59.8868 23.648C60.3508 23.648 60.6988 23.568 60.9308 23.408C61.1708 23.248 61.2908 23.048 61.2908 22.808C61.2908 22.576 61.2068 22.372 61.0388 22.196C60.8708 22.012 60.5908 21.852 60.1988 21.716L58.8668 21.236C58.3068 21.028 57.7988 20.768 57.3428 20.456C56.8868 20.136 56.5268 19.748 56.2628 19.292C55.9988 18.828 55.8668 18.276 55.8668 17.636C55.8668 16.82 56.0588 16.116 56.4428 15.524C56.8268 14.932 57.3668 14.476 58.0628 14.156C58.7588 13.828 59.5748 13.664 60.5108 13.664C61.2708 13.664 62.0668 13.768 62.8988 13.976C63.7308 14.184 64.4068 14.416 64.9268 14.672C64.9428 14.96 64.9068 15.28 64.8188 15.632C64.7308 15.984 64.6028 16.308 64.4348 16.604C64.2748 16.9 64.0948 17.124 63.8948 17.276C63.3988 17.052 62.8588 16.848 62.2748 16.664C61.6908 16.472 61.1148 16.376 60.5468 16.376C60.2268 16.376 59.9828 16.452 59.8148 16.604C59.6468 16.756 59.5628 16.936 59.5628 17.144C59.5628 17.352 59.6348 17.528 59.7788 17.672C59.9228 17.816 60.1548 17.944 60.4748 18.056L61.9628 18.584C62.8748 18.904 63.6348 19.372 64.2428 19.988C64.8508 20.604 65.1548 21.424 65.1548 22.448C65.1548 23.64 64.6948 24.592 63.7748 25.304C62.8628 26.008 61.5948 26.36 59.9708 26.36C59.1148 26.36 58.2988 26.24 57.5228 26C56.7548 25.768 56.0868 25.492 55.5188 25.172ZM70.7914 26C70.2634 26.096 69.6434 26.144 68.9314 26.144C68.2994 26.144 67.6954 26.096 67.1194 26V8.504L67.2874 8.336H68.7514C69.4874 8.336 70.0114 8.504 70.3234 8.84C70.6354 9.176 70.7914 9.76 70.7914 10.592V26ZM77.3554 23C77.3554 23.464 77.3994 23.904 77.4874 24.32C77.5754 24.728 77.7274 25.084 77.9434 25.388C77.6714 25.612 77.3314 25.804 76.9234 25.964C76.5154 26.116 76.0754 26.192 75.6034 26.192C74.8514 26.192 74.3274 25.992 74.0314 25.592C73.7434 25.192 73.5994 24.616 73.5994 23.864V18.764C73.5994 18.22 73.5274 17.82 73.3834 17.564C73.2394 17.3 72.9674 17.168 72.5674 17.168C72.3274 17.168 72.0434 17.236 71.7154 17.372C71.3874 17.508 71.0594 17.728 70.7314 18.032C70.4114 18.328 70.1314 18.728 69.8914 19.232V15.956C70.4514 15.404 71.0594 14.908 71.7154 14.468C72.3794 14.028 73.1394 13.808 73.9954 13.808C74.7234 13.808 75.3354 13.992 75.8314 14.36C76.3354 14.72 76.7154 15.22 76.9714 15.86C77.2274 16.5 77.3554 17.24 77.3554 18.08V23ZM84.4707 26C84.2067 26.048 83.9067 26.084 83.5707 26.108C83.2427 26.132 82.9187 26.144 82.5987 26.144C82.2867 26.144 81.9627 26.132 81.6267 26.108C81.2987 26.084 80.9947 26.048 80.7147 26V18.056C80.7147 17.656 80.6307 17.324 80.4627 17.06C80.3027 16.796 80.0107 16.664 79.5867 16.664H79.2267C79.1227 16.256 79.0707 15.832 79.0707 15.392C79.0707 15.184 79.0827 14.964 79.1067 14.732C79.1307 14.492 79.1707 14.264 79.2267 14.048C79.5947 14.008 79.9707 13.98 80.3547 13.964C80.7467 13.94 81.0747 13.928 81.3387 13.928H81.8547C82.6627 13.928 83.2987 14.188 83.7627 14.708C84.2347 15.22 84.4707 15.916 84.4707 16.796V26ZM79.9947 10.652C79.9947 10.428 80.0187 10.196 80.0667 9.956C80.1147 9.708 80.1827 9.472 80.2707 9.248C80.4787 9.144 80.7467 9.056 81.0747 8.984C81.4107 8.912 81.7387 8.876 82.0587 8.876C82.3867 8.876 82.7187 8.912 83.0547 8.984C83.3987 9.056 83.6627 9.144 83.8467 9.248C83.9347 9.472 84.0027 9.712 84.0507 9.968C84.0987 10.216 84.1227 10.444 84.1227 10.652C84.1227 10.868 84.0987 11.1 84.0507 11.348C84.0027 11.596 83.9347 11.828 83.8467 12.044C83.6627 12.148 83.3987 12.236 83.0547 12.308C82.7187 12.38 82.3867 12.416 82.0587 12.416C81.7387 12.416 81.4067 12.384 81.0627 12.32C80.7187 12.248 80.4547 12.156 80.2707 12.044C80.1827 11.828 80.1147 11.596 80.0667 11.348C80.0187 11.1 79.9947 10.868 79.9947 10.652ZM88.4631 13.856C89.2231 13.856 89.8311 14.14 90.2871 14.708C90.7511 15.268 90.9831 16.04 90.9831 17.024V28.928C90.9831 29.76 90.8231 30.344 90.5031 30.68C90.1911 31.016 89.6671 31.184 88.9311 31.184H87.4671L87.2991 31.016V14.024L87.4671 13.856H88.4631ZM98.0151 19.868C98.0151 21.244 97.7951 22.408 97.3551 23.36C96.9231 24.304 96.3431 25.02 95.6151 25.508C94.8871 25.996 94.0831 26.24 93.2031 26.24C92.3711 26.24 91.6311 26.068 90.9831 25.724C90.3431 25.372 89.7591 25.036 89.2311 24.716L89.8311 22.064C90.3031 22.44 90.7751 22.764 91.2471 23.036C91.7271 23.308 92.1591 23.444 92.5431 23.444C92.9351 23.444 93.2471 23.3 93.4791 23.012C93.7191 22.716 93.8951 22.3 94.0071 21.764C94.1191 21.22 94.1751 20.58 94.1751 19.844C94.1751 19.1 94.1111 18.496 93.9831 18.032C93.8631 17.56 93.6911 17.216 93.4671 17C93.2511 16.784 93.0031 16.676 92.7231 16.676C92.4751 16.676 92.1791 16.752 91.8351 16.904C91.4991 17.056 91.1671 17.352 90.8391 17.792C90.5191 18.224 90.2511 18.864 90.0351 19.712L89.1951 17.588C89.2751 16.94 89.5231 16.316 89.9391 15.716C90.3551 15.116 90.8871 14.624 91.5351 14.24C92.1911 13.856 92.9111 13.664 93.6951 13.664C94.6711 13.664 95.4791 13.928 96.1191 14.456C96.7591 14.984 97.2351 15.716 97.5471 16.652C97.8591 17.58 98.0151 18.652 98.0151 19.868Z" fill="#603BAD"/>
</svg>
