<svg width="" height="" viewBox="0 0 21 21" fill="none" xmlns="http://www.w3.org/2000/svg">
<path d="M2.82187 11.8125L9.40625 2.2312V11.8125H2.82187ZM5.3375 10.5H8.09375V6.40933L5.3375 10.5ZM11.2438 11.8125C11.5208 10.9375 11.7214 10.0588 11.8453 9.17651C11.9693 8.29422 12.0312 7.34995 12.0312 6.3437C12.0312 5.3812 11.9693 4.44422 11.8453 3.53276C11.7214 2.62131 11.5208 1.74995 11.2438 0.918701C11.9292 1.19578 12.6656 1.68068 13.4531 2.37339C14.2406 3.0661 14.9771 3.90099 15.6625 4.87808C16.3479 5.85516 16.924 6.93797 17.3906 8.12651C17.8573 9.31505 18.1125 10.5437 18.1562 11.8125H11.2438ZM12.8844 10.5H16.7125C16.4646 9.2312 16.0089 8.0062 15.3453 6.82495C14.6818 5.6437 13.9563 4.66662 13.1688 3.8937C13.2417 4.3312 13.2891 4.76141 13.3109 5.18433C13.3328 5.60724 13.3438 5.9937 13.3438 6.3437C13.3438 7.01453 13.2964 7.73641 13.2016 8.50933C13.1068 9.28224 13.001 9.94578 12.8844 10.5V10.5ZM7.875 16.7125C7.37917 16.7125 6.90521 16.5776 6.45312 16.3078C6.00104 16.038 5.6 15.6989 5.25 15.2906C5.04583 15.4947 4.80156 15.6953 4.51719 15.8921C4.23281 16.089 3.95937 16.2385 3.69687 16.3406C3.27396 16.0781 2.88021 15.688 2.51562 15.1703C2.15104 14.6526 1.91042 14.1166 1.79375 13.5625H19.2063C19.0896 14.1166 18.849 14.6526 18.4844 15.1703C18.1198 15.688 17.726 16.0781 17.3031 16.3406C17.0406 16.2385 16.7672 16.089 16.4828 15.8921C16.1984 15.6953 15.9542 15.4947 15.75 15.2906C15.4 15.6989 14.999 16.038 14.5469 16.3078C14.0948 16.5776 13.6208 16.7125 13.125 16.7125C12.6292 16.7125 12.1552 16.5776 11.7031 16.3078C11.251 16.038 10.85 15.6989 10.5 15.2906C10.15 15.6989 9.74896 16.038 9.29688 16.3078C8.84479 16.5776 8.37083 16.7125 7.875 16.7125ZM1.75 20.125V18.8125H2.625C3.09167 18.8125 3.5401 18.7359 3.97031 18.5828C4.40052 18.4296 4.82708 18.1489 5.25 17.7406C5.67292 18.1489 6.10312 18.4296 6.54062 18.5828C6.97812 18.7359 7.42292 18.8125 7.875 18.8125C8.34167 18.8125 8.7901 18.7359 9.22031 18.5828C9.65052 18.4296 10.0771 18.1489 10.5 17.7406C10.9229 18.1489 11.3531 18.4296 11.7906 18.5828C12.2281 18.7359 12.6729 18.8125 13.125 18.8125C13.5917 18.8125 14.0401 18.7359 14.4703 18.5828C14.9005 18.4296 15.3271 18.1489 15.75 17.7406C16.1729 18.1489 16.5995 18.4296 17.0297 18.5828C17.4599 18.7359 17.9083 18.8125 18.375 18.8125H19.25V20.125H18.375C17.9521 20.125 17.5182 20.063 17.0734 19.939C16.6286 19.8151 16.1875 19.5854 15.75 19.25C15.3125 19.5854 14.8714 19.8151 14.4266 19.939C13.9818 20.063 13.5479 20.125 13.125 20.125C12.7021 20.125 12.2682 20.063 11.8234 19.939C11.3786 19.8151 10.9375 19.5854 10.5 19.25C10.0625 19.5854 9.62135 19.8151 9.17656 19.939C8.73177 20.063 8.29792 20.125 7.875 20.125C7.45208 20.125 7.01823 20.063 6.57344 19.939C6.12865 19.8151 5.6875 19.5854 5.25 19.25C4.8125 19.5854 4.37135 19.8151 3.92656 19.939C3.48177 20.063 3.04792 20.125 2.625 20.125H1.75Z" fill="#3A2368"/>
</svg>
