<?xml version="1.0" encoding="UTF-8" standalone="no"?>
<!DOCTYPE svg PUBLIC "-//W3C//DTD SVG 1.1//EN" "http://www.w3.org/Graphics/SVG/1.1/DTD/svg11.dtd">
<svg width="100%" height="100%" viewBox="0 0 60 52" version="1.1" xmlns="http://www.w3.org/2000/svg" xmlns:xlink="http://www.w3.org/1999/xlink" xml:space="preserve" xmlns:serif="http://www.serif.com/" style="fill-rule:evenodd;clip-rule:evenodd;stroke-linejoin:round;stroke-miterlimit:2;">
    <g transform="matrix(1,0,0,1,-25.9199,-4.60091)">
        <g id="Welle-gestreckt" serif:id="Welle gestreckt" transform="matrix(1.363,0,0,1,23.2078,4.8)">
            <path d="M4,47.801L4,43L6,43C7.067,43 8.092,42.825 9.075,42.475C10.058,42.125 11.033,41.483 12,40.55C12.967,41.483 13.95,42.125 14.95,42.475C15.95,42.825 16.967,43 18,43C19.067,43 20.092,42.825 21.075,42.475C22.058,42.125 23.033,41.483 24,40.55C24.967,41.483 25.95,42.125 26.95,42.475C27.95,42.825 28.967,43 30,43C31.067,43 32.092,42.825 33.075,42.475C34.058,42.125 35.033,41.483 36,40.55C36.967,41.483 37.942,42.125 38.925,42.475C39.908,42.825 40.933,43 42,43L44,43L44,47.801L42,47.801C41.033,47.801 40.042,47.659 39.025,47.376C38.008,47.093 37,46.568 36,45.801C35,46.568 33.992,47.093 32.975,47.376C31.958,47.659 30.967,47.801 30,47.801C29.033,47.801 28.042,47.659 27.025,47.376C26.008,47.093 25,46.568 24,45.801C23,46.568 21.992,47.093 20.975,47.376C19.958,47.659 18.967,47.801 18,47.801C17.033,47.801 16.042,47.659 15.025,47.376C14.008,47.093 13,46.568 12,45.801C11,46.568 9.992,47.093 8.975,47.376C7.958,47.659 6.967,47.801 6,47.801L4,47.801Z" style="fill:rgb(96,59,173);fill-rule:nonzero;"/>
        </g>
        <g transform="matrix(1,0,0,1,24.6598,4.8)">
            <path d="M6.45,27L21.5,5.1L21.5,27L6.45,27ZM12.2,24L18.5,24L18.5,14.65L12.2,24ZM25.7,27C26.333,25 26.792,22.992 27.075,20.975C27.358,18.958 27.5,16.8 27.5,14.5C27.5,12.3 27.358,10.158 27.075,8.075C26.792,5.992 26.333,4 25.7,2.1C27.267,2.733 28.95,3.842 30.75,5.425C32.55,7.008 34.233,8.917 35.8,11.15C37.367,13.383 38.683,15.858 39.75,18.575C40.817,21.292 41.4,24.1 41.5,27L25.7,27ZM29.45,24L38.2,24C37.633,21.1 36.592,18.3 35.075,15.6C33.558,12.9 31.9,10.667 30.1,8.9C30.267,9.9 30.375,10.883 30.425,11.85C30.475,12.817 30.5,13.7 30.5,14.5C30.5,16.033 30.392,17.683 30.175,19.45C29.958,21.217 29.717,22.733 29.45,24ZM18,38.2C16.867,38.2 15.783,37.892 14.75,37.275C13.717,36.658 12.8,35.883 12,34.95C11.533,35.417 10.975,35.875 10.325,36.325C9.675,36.775 9.05,37.117 8.45,37.35C7.483,36.75 6.583,35.858 5.75,34.675C4.917,33.492 4.367,32.267 4.1,31L43.9,31C43.633,32.267 43.083,33.492 42.25,34.675C41.417,35.858 40.517,36.75 39.55,37.35C38.95,37.117 38.325,36.775 37.675,36.325C37.025,35.875 36.467,35.417 36,34.95C35.2,35.883 34.283,36.658 33.25,37.275C32.217,37.892 31.133,38.2 30,38.2C28.867,38.2 27.783,37.892 26.75,37.275C25.717,36.658 24.8,35.883 24,34.95C23.2,35.883 22.283,36.658 21.25,37.275C20.217,37.892 19.133,38.2 18,38.2Z" style="fill:rgb(96,59,173);fill-rule:nonzero;"/>
        </g>
    </g>
</svg>
